# xmcd
#
# Track frame offsets:
#       150
#       16157
#       35487
#       48892
#       62699
#       80228
#       98507
#       113454
#       132659
#       156212
#       172882
#
# Disc length: 2507 seconds
#
# Revision: 0
# Processed by: cddbd v1.5.2PL0 Copyright (c) Steve Scherf et al.
# Submitted via: WaveLab 4.01
#
DISCID=8109c90b
DTITLE=Drinking Rock - Drinking Rock
DYEAR=2004
DGENRE=Blues Rock
TTITLE0=Washing in the shit
TTITLE1=Celeste
TTITLE2=Hari Georgeson
TTITLE3=I can´t drive my eyes tonight
TTITLE4=Drinking Rock
TTITLE5=Reaction Blues
TTITLE6=Visions
TTITLE7=Tears of love
TTITLE8=Bluis
TTITLE9=Harvest Fly
TTITLE10=Kash me
EXTD=
EXTT0=
EXTT1=
EXTT2=
EXTT3=
EXTT4=
EXTT5=
EXTT6=
EXTT7=
EXTT8=
EXTT9=
EXTT10=
PLAYORDER=
